<svg width="155" height="56" viewBox="0 0 155 56" fill="none" xmlns="http://www.w3.org/2000/svg">
<g filter="url(#filter0_dd_66_1150)">
<rect x="3" y="8" width="40" height="40" rx="10" fill="#0037FF"/>
<path d="M23.4517 18.24C23.4517 18.1075 23.3443 18 23.2117 18H18.4659C18.3333 18 18.2259 18.1075 18.2259 18.24V21.7352C18.2259 21.8775 18.1027 21.9886 17.9611 21.9739L13.2648 21.4863C13.1232 21.4716 13 21.5827 13 21.725L13 26.329C13 26.4519 13.0929 26.555 13.2152 26.5677L21.2643 27.4034C21.266 27.4036 21.2673 27.405 21.2673 27.4067C21.2673 27.4086 21.2658 27.4101 21.264 27.4101H18.4659C18.3333 27.4101 18.2259 27.5175 18.2259 27.6501V36.502C18.2259 36.625 18.3188 36.728 18.4411 36.7407L30.5575 37.9987C30.6571 38.009 30.7526 37.9565 30.7972 37.8669L32.9747 33.489C33.0493 33.339 32.9512 33.1607 32.7846 33.1434L20.4795 31.8659H23.2117C23.3443 31.8659 23.4517 31.7584 23.4517 31.6259V27.8967C23.4517 27.7543 23.5749 27.6433 23.7165 27.658L28.4128 28.1456C28.5544 28.1603 28.6776 28.0492 28.6776 27.9068V23.3029C28.6776 23.1799 28.5846 23.0769 28.4623 23.0642L23.6669 22.5663C23.5446 22.5536 23.4517 22.4505 23.4517 22.3276V18.24Z" fill="#FFD800"/>
</g>
<path d="M65.086 34.906C65.502 34.906 65.866 34.906 66.178 34.88V38C65.788 38.052 64.592 38.052 63.578 38.052C60.562 38.052 59.314 37.428 59.314 34.568V26.898H57.156V24.22H59.314V20.398H63.448V24.22H66.256V26.898H63.448V33.554C63.448 34.776 63.916 34.906 65.086 34.906ZM80.5863 38H76.5043C76.2443 37.714 76.1143 37.012 76.1143 36.05C75.3863 37.532 73.5663 38.338 71.5903 38.338C69.2243 38.338 66.9883 36.83 66.9883 34.282C66.9883 31.318 69.0423 30.2 72.6303 29.758C75.4123 29.394 76.1143 29.03 76.1143 28.224C76.1143 27.288 75.3603 26.716 73.9303 26.716C72.7603 26.716 71.7723 27.366 71.3563 28.614L67.5343 28.146C68.1323 25.468 70.6283 23.908 74.0343 23.908C78.2723 23.908 80.2223 25.702 80.2223 28.484V35.348C80.2223 36.726 80.2483 37.48 80.5863 38ZM76.1143 32.696V31.37C75.6723 31.682 74.6583 31.838 73.4103 32.046C72.1363 32.254 71.2003 32.852 71.2003 33.996C71.2003 35.036 71.9283 35.634 73.0203 35.634C74.3203 35.634 76.1143 34.828 76.1143 32.696ZM93.9428 27.99L90.1208 28.432C89.8868 27.21 88.9248 26.508 87.6768 26.508C86.4808 26.508 85.6228 27.028 85.6228 27.964C85.6228 28.848 86.5328 29.134 87.9108 29.342L89.3668 29.576C91.8888 29.992 94.3588 30.746 94.3588 33.892C94.3588 36.986 91.4988 38.338 87.7808 38.338C84.1148 38.338 81.4888 36.778 81.0208 33.996L84.8948 33.528C85.1808 35.01 86.2208 35.712 87.8068 35.712C89.2368 35.712 90.1468 35.088 90.1468 34.074C90.1468 33.216 89.1848 32.826 87.7028 32.592L86.1168 32.332C83.8808 31.994 81.5148 31.188 81.5148 28.172C81.5148 25.416 84.4007 23.908 87.6507 23.908C90.9528 23.908 93.4748 25.416 93.9428 27.99ZM99.7473 33.892V38H95.6133V19.176H99.7473V29.472L104.427 24.22H109.055L104.011 29.524L109.627 38H104.869L101.229 32.306L99.7473 33.892ZM114.448 26.066L114.552 26.092C115.436 24.844 116.814 23.908 118.842 23.908C121.494 23.908 123.6 25.468 123.6 28.978V38H119.466V29.966C119.466 27.938 118.634 27.21 117.126 27.21C115.748 27.21 114.448 28.38 114.448 30.668V38H110.314V19.176H114.448V26.066ZM134.527 36.154H134.423C133.539 37.402 132.135 38.338 130.029 38.338C127.299 38.338 125.193 36.778 125.193 33.268V24.22H129.327V32.28C129.327 34.308 130.159 35.036 131.667 35.036C133.071 35.036 134.345 33.97 134.345 31.708V24.22H138.479V38H134.527V36.154ZM148.444 23.908C151.772 23.908 154.294 26.664 154.294 31.136C154.294 35.582 151.772 38.338 148.34 38.338C146.624 38.338 145.012 37.74 144.128 36.18H144.024V38.026H140.072V19.202H144.206V25.858H144.31C145.09 24.636 146.494 23.908 148.444 23.908ZM147.04 35.244C148.886 35.244 150.082 33.918 150.082 31.136C150.082 28.328 148.886 27.002 147.04 27.002C145.194 27.002 143.998 28.328 143.998 31.136C143.998 33.918 145.194 35.244 147.04 35.244Z" fill="black"/>
<defs>
<filter id="filter0_dd_66_1150" x="0" y="6" width="46" height="46" filterUnits="userSpaceOnUse" color-interpolation-filters="sRGB">
<feFlood flood-opacity="0" result="BackgroundImageFix"/>
<feColorMatrix in="SourceAlpha" type="matrix" values="0 0 0 0 0 0 0 0 0 0 0 0 0 0 0 0 0 0 127 0" result="hardAlpha"/>
<feOffset dy="1"/>
<feGaussianBlur stdDeviation="1"/>
<feColorMatrix type="matrix" values="0 0 0 0 0.0941176 0 0 0 0 0.137255 0 0 0 0 0.133333 0 0 0 0.06 0"/>
<feBlend mode="normal" in2="BackgroundImageFix" result="effect1_dropShadow_66_1150"/>
<feColorMatrix in="SourceAlpha" type="matrix" values="0 0 0 0 0 0 0 0 0 0 0 0 0 0 0 0 0 0 127 0" result="hardAlpha"/>
<feOffset dy="1"/>
<feGaussianBlur stdDeviation="1.5"/>
<feColorMatrix type="matrix" values="0 0 0 0 0.0941176 0 0 0 0 0.137255 0 0 0 0 0.133333 0 0 0 0.1 0"/>
<feBlend mode="normal" in2="effect1_dropShadow_66_1150" result="effect2_dropShadow_66_1150"/>
<feBlend mode="normal" in="SourceGraphic" in2="effect2_dropShadow_66_1150" result="shape"/>
</filter>
</defs>
</svg>
